# xmcd
#
# Track frame offsets:
#	150
#	13461
#	27179
#	37477
#	50660
#	64874
#	78941
#	89831
#	101623
#	114795
#	129207
#	142597
#	154906
#	165883
#	177479
#
# Disc length: 2618 seconds
#
# Revision: 1
# Processed by: cddbd v1.5PL3 Copyright (c) Steve Scherf et al.
# Submitted via: EasyCDDAExtractor 6.5.0.1
#
DISCID=c30a380f
DTITLE=Various Artist - Ritmos Bailables Cubanos Vol 2
DYEAR=2000
DGENRE=Salsa
TTITLE0=Mi nuevo ritmo
TTITLE1=6 Lindas cubanas
TTITLE2=Cuban mambo
TTITLE3=Balcón de Santiago
TTITLE4=Cuidado con los callos
TTITLE5=Ariñañara
TTITLE6=De mi cubita es el mango
TTITLE7=Palo mayimbe
TTITLE8=Lágrimas negras
TTITLE9=Guaguancó a todos los barrios
TTITLE10=Mulata guapachá
TTITLE11=Ay, que rico amor
TTITLE12=Cachita
TTITLE13=Domingo Pantoja
TTITLE14=Los rumberos de La Habana
EXTD=
EXTT0=
EXTT1=
EXTT2=
EXTT3=
EXTT4=
EXTT5=
EXTT6=
EXTT7=
EXTT8=
EXTT9=
EXTT10=
EXTT11=
EXTT12=
EXTT13=
EXTT14=
PLAYORDER=
